<?xml version="1.0" encoding="utf-8"?>
<!-- Generator: Adobe Illustrator 24.1.2, SVG Export Plug-In . SVG Version: 6.00 Build 0)  -->
<svg version="1.1" id="Layer_1" xmlns="http://www.w3.org/2000/svg" xmlns:xlink="http://www.w3.org/1999/xlink" x="0px" y="0px"
	 viewBox="0 0 283.5 141.7" style="enable-background:new 0 0 283.5 141.7;" xml:space="preserve">
<style type="text/css">
	.st0{fill:#28225A;}
	.st1{fill:#E84610;}
</style>
<g>
	<path class="st0" d="M50.3,76.8c0.6-0.1,3.8-1.7,3.8-6c0-4.2-2.6-9.2-11.5-9.2c-8.6,0-12.3,4.6-12.3,11h0v0.3h6.4v-0.2
		c0-3.3,1.8-5.1,5.5-5.1c2.9,0,5.9,0.3,5.9,3.3c0,2.4-3.7,3.5-8.8,3.5c0,1.7,0,3,0,4.9c3.8,0,9.6,0.4,9.6,3.6c0,3.6-5.6,3.3-6.7,3.3
		c-2.9,0-5.5-1.1-5.5-5.3v-0.1h-6.4V81h0c0,4.9,1.7,11,11.8,11c11.1,0,12.8-5.9,12.8-8.7C54.9,77.7,50.9,76.9,50.3,76.8z"/>
	<path class="st1" d="M169.4,61.6c-8.7,0-15.4,5.4-15.4,15.2c0,10,6.7,15.2,15.4,15.2c8.7,0,15.4-5.4,15.4-15.2
		C184.8,66.9,178.1,61.6,169.4,61.6z M169.4,85.4c-5.2,0-9-2.6-9-8.6c0-6,3.8-8.6,9-8.6c5.2,0,9,2.7,9,8.6
		C178.4,82.6,174.6,85.4,169.4,85.4z"/>
	<polygon class="st1" points="214.8,61.6 212.7,61.6 206.6,86 206,86 200,61.6 198.4,61.6 198.4,61.6 188.6,61.6 188.6,92 195.2,92 
		195.2,69.4 195.9,69.4 201.7,92 211.2,92 217,69.4 217.7,69.4 217.7,92 224.3,92 224.3,61.6 214.8,61.6 	"/>
	<ellipse transform="matrix(0.3827 -0.9239 0.9239 0.3827 8.2577 120.6549)" class="st0" cx="94.4" cy="54.1" rx="4.4" ry="4.4"/>
	<ellipse transform="matrix(0.9871 -0.1602 0.1602 0.9871 -7.8721 10.6421)" class="st0" cx="62.1" cy="54.1" rx="4.4" ry="4.4"/>
	<path class="st0" d="M82.7,64.5c2.5,0,4.4-2,4.4-4.4c0-2.5-2-4.5-4.4-4.5c-2.5,0-4.4,2-4.4,4.5C78.3,62.5,80.3,64.5,82.7,64.5z"/>
	<polygon class="st1" points="234.7,67.6 253.1,67.6 253.1,61.6 228.1,61.6 228.1,92 234.7,92 234.7,92 253.1,92 253.1,86 234.7,86 
		234.7,83.3 234.7,79.8 253.1,79.8 253.1,73.8 234.7,73.8 234.7,70 	"/>
	<path class="st0" d="M117.8,71.7c0-10.2-8.1-10.2-11.8-10.2c-1.8,0-14.9,0-14.9,0v15.2H86v-9.3h-6.6v9.3H65.4v-3V61.6h-6.6V92h6.6
		v-9.3h14.1V92H86v-9.3h5.1V92h6.6v-9.3h9l3.8,9.3h7.2L113,80.9C115.7,79.5,117.8,77,117.8,71.7z M105.5,76.8c-0.6,0-6.3,0-7.7,0
		v-9.3c1.7,0,6.6,0,7.8,0c2.1,0,6.1,0,6.1,4.6C111.6,76.8,107.3,76.8,105.5,76.8z"/>
	<path class="st1" d="M135.2,61.6c-9.8,0-13.6,4.9-13.6,9.2c0,5.5,4.7,7.8,13.7,8.7c5.9,0.6,8,1.2,8,3.3c0,2.3-2.1,3.5-7,3.5
		c-3.9,0-7.8-0.7-7.9-5.2v-0.2h-6.7v0.4h0c0,3.1,0.4,10.9,14.8,10.9c8.8,0,13.8-1.9,13.8-9.3c0-6.8-7.6-8.2-14.4-8.9
		c-5.4-0.5-7.4-1.4-7.4-3c0-1.5,1.8-3.3,6.9-3.3c6.2,0,8.1,3.1,8.1,5.2v0.2h6.9v-0.2C150.2,68.1,146.9,61.6,135.2,61.6z"/>
</g>
</svg>
